<svg xmlns="http://www.w3.org/2000/svg" width="1122.527" height="793.727" version="1.1" viewBox="0 0 116930 82680"><title>SVG Picture created as high-level-schematic.sch.svg date 2017/07/23 17:39:11</title><desc>Picture generated by Eeschema-SVG</desc><g fill="#840000" fill-opacity="0" stroke="#840000" stroke-linecap="round" stroke-linejoin="round" stroke-opacity="1" stroke-width="60"><rect width="42520" height="12600" x="69690" y="65360" rx="0"/></g><g fill="#840000" fill-opacity="0" stroke="#840000" stroke-linecap="round" stroke-linejoin="round" stroke-opacity="1" stroke-width="60"><rect width="109050" height="74800" x="3940" y="3940" rx="0"/></g><g fill="#840000" fill-opacity="0" stroke="#840000" stroke-linecap="round" stroke-linejoin="round" stroke-opacity="1" stroke-width="60"><rect width="107490" height="73240" x="4720" y="4720" rx="0"/></g><g fill="#840000" fill-opacity="0" stroke="#840000" stroke-linecap="round" stroke-linejoin="round" stroke-opacity="1" stroke-width="60"><path d="M23620 4720 L23620 3940"/></g><g fill="#840000" fill-opacity="0" stroke="#840000" stroke-linecap="round" stroke-linejoin="round" stroke-opacity="1" stroke-width="60"><path d="M43310 4720 L43310 3940"/></g><g fill="#840000" fill-opacity="0" stroke="#840000" stroke-linecap="round" stroke-linejoin="round" stroke-opacity="1" stroke-width="60"><path d="M62990 4720 L62990 3940"/></g><g fill="#840000" fill-opacity="0" stroke="#840000" stroke-linecap="round" stroke-linejoin="round" stroke-opacity="1" stroke-width="60"><path d="M82680 4720 L82680 3940"/></g><g fill="#840000" fill-opacity="0" stroke="#840000" stroke-linecap="round" stroke-linejoin="round" stroke-opacity="1" stroke-width="60"><path d="M102360 4720 L102360 3940"/></g><g fill="#840000" fill-opacity="0" stroke="#840000" stroke-linecap="round" stroke-linejoin="round" stroke-opacity="1" stroke-width="60"><path d="M14170 4560 L13880 4560"/><path d="M14020 4560 L14020 4050 L13970 4120 L13930 4170 L13880 4190"/></g><g fill="#840000" fill-opacity="0" stroke="#840000" stroke-linecap="round" stroke-linejoin="round" stroke-opacity="1" stroke-width="60"><path d="M33560 4090 L33580 4070 L33630 4050 L33750 4050 L33800 4070 L33820 4090 L33850 4140 L33850 4190 L33820 4260 L33530 4560 L33850 4560"/></g><g fill="#840000" fill-opacity="0" stroke="#840000" stroke-linecap="round" stroke-linejoin="round" stroke-opacity="1" stroke-width="60"><path d="M53220 4050 L53540 4050 L53370 4240 L53440 4240 L53490 4260 L53510 4290 L53540 4340 L53540 4460 L53510 4510 L53490 4530 L53440 4560 L53300 4560 L53250 4530 L53220 4510"/></g><g fill="#840000" fill-opacity="0" stroke="#840000" stroke-linecap="round" stroke-linejoin="round" stroke-opacity="1" stroke-width="60"><path d="M73170 4220 L73170 4560"/><path d="M73050 4020 L72930 4390 L73240 4390"/></g><g fill="#840000" fill-opacity="0" stroke="#840000" stroke-linecap="round" stroke-linejoin="round" stroke-opacity="1" stroke-width="60"><path d="M92880 4050 L92640 4050 L92620 4290 L92640 4260 L92690 4240 L92810 4240 L92860 4260 L92880 4290 L92910 4340 L92910 4460 L92880 4510 L92860 4530 L92810 4560 L92690 4560 L92640 4530 L92620 4510"/></g><g fill="#840000" fill-opacity="0" stroke="#840000" stroke-linecap="round" stroke-linejoin="round" stroke-opacity="1" stroke-width="60"><path d="M112540 4050 L112440 4050 L112390 4070 L112370 4090 L112320 4170 L112300 4260 L112300 4460 L112320 4510 L112350 4530 L112390 4560 L112490 4560 L112540 4530 L112560 4510 L112590 4460 L112590 4340 L112560 4290 L112540 4260 L112490 4240 L112390 4240 L112350 4260 L112320 4290 L112300 4340"/></g><g fill="#840000" fill-opacity="0" stroke="#840000" stroke-linecap="round" stroke-linejoin="round" stroke-opacity="1" stroke-width="60"><path d="M23620 77960 L23620 78740"/></g><g fill="#840000" fill-opacity="0" stroke="#840000" stroke-linecap="round" stroke-linejoin="round" stroke-opacity="1" stroke-width="60"><path d="M43310 77960 L43310 78740"/></g><g fill="#840000" fill-opacity="0" stroke="#840000" stroke-linecap="round" stroke-linejoin="round" stroke-opacity="1" stroke-width="60"><path d="M62990 77960 L62990 78740"/></g><g fill="#840000" fill-opacity="0" stroke="#840000" stroke-linecap="round" stroke-linejoin="round" stroke-opacity="1" stroke-width="60"><path d="M82680 77960 L82680 78740"/></g><g fill="#840000" fill-opacity="0" stroke="#840000" stroke-linecap="round" stroke-linejoin="round" stroke-opacity="1" stroke-width="60"><path d="M102360 77960 L102360 78740"/></g><g fill="#840000" fill-opacity="0" stroke="#840000" stroke-linecap="round" stroke-linejoin="round" stroke-opacity="1" stroke-width="60"><path d="M14170 78580 L13880 78580"/><path d="M14020 78580 L14020 78070 L13970 78140 L13930 78190 L13880 78210"/></g><g fill="#840000" fill-opacity="0" stroke="#840000" stroke-linecap="round" stroke-linejoin="round" stroke-opacity="1" stroke-width="60"><path d="M33560 78110 L33580 78090 L33630 78070 L33750 78070 L33800 78090 L33820 78110 L33850 78160 L33850 78210 L33820 78280 L33530 78580 L33850 78580"/></g><g fill="#840000" fill-opacity="0" stroke="#840000" stroke-linecap="round" stroke-linejoin="round" stroke-opacity="1" stroke-width="60"><path d="M53220 78070 L53540 78070 L53370 78260 L53440 78260 L53490 78280 L53510 78310 L53540 78360 L53540 78480 L53510 78530 L53490 78550 L53440 78580 L53300 78580 L53250 78550 L53220 78530"/></g><g fill="#840000" fill-opacity="0" stroke="#840000" stroke-linecap="round" stroke-linejoin="round" stroke-opacity="1" stroke-width="60"><path d="M73170 78240 L73170 78580"/><path d="M73050 78040 L72930 78410 L73240 78410"/></g><g fill="#840000" fill-opacity="0" stroke="#840000" stroke-linecap="round" stroke-linejoin="round" stroke-opacity="1" stroke-width="60"><path d="M92880 78070 L92640 78070 L92620 78310 L92640 78280 L92690 78260 L92810 78260 L92860 78280 L92880 78310 L92910 78360 L92910 78480 L92880 78530 L92860 78550 L92810 78580 L92690 78580 L92640 78550 L92620 78530"/></g><g fill="#840000" fill-opacity="0" stroke="#840000" stroke-linecap="round" stroke-linejoin="round" stroke-opacity="1" stroke-width="60"><path d="M112540 78070 L112440 78070 L112390 78090 L112370 78110 L112320 78190 L112300 78280 L112300 78480 L112320 78530 L112350 78550 L112390 78580 L112490 78580 L112540 78550 L112560 78530 L112590 78480 L112590 78360 L112560 78310 L112540 78280 L112490 78260 L112390 78260 L112350 78280 L112320 78310 L112300 78360"/></g><g fill="#840000" fill-opacity="0" stroke="#840000" stroke-linecap="round" stroke-linejoin="round" stroke-opacity="1" stroke-width="60"><path d="M3940 23620 L4720 23620"/></g><g fill="#840000" fill-opacity="0" stroke="#840000" stroke-linecap="round" stroke-linejoin="round" stroke-opacity="1" stroke-width="60"><path d="M3940 43310 L4720 43310"/></g><g fill="#840000" fill-opacity="0" stroke="#840000" stroke-linecap="round" stroke-linejoin="round" stroke-opacity="1" stroke-width="60"><path d="M3940 62990 L4720 62990"/></g><g fill="#840000" fill-opacity="0" stroke="#840000" stroke-linecap="round" stroke-linejoin="round" stroke-opacity="1" stroke-width="60"><path d="M4210 13860 L4450 13860"/><path d="M4160 14010 L4330 13500 L4500 14010"/></g><g fill="#840000" fill-opacity="0" stroke="#840000" stroke-linecap="round" stroke-linejoin="round" stroke-opacity="1" stroke-width="60"><path d="M4370 33420 L4440 33440 L4470 33470 L4490 33520 L4490 33590 L4470 33640 L4440 33660 L4400 33690 L4200 33690 L4200 33180 L4370 33180 L4420 33200 L4440 33220 L4470 33270 L4470 33320 L4440 33370 L4420 33390 L4370 33420 L4200 33420"/></g><g fill="#840000" fill-opacity="0" stroke="#840000" stroke-linecap="round" stroke-linejoin="round" stroke-opacity="1" stroke-width="60"><path d="M4490 53330 L4470 53350 L4400 53380 L4350 53380 L4270 53350 L4230 53300 L4200 53250 L4180 53160 L4180 53080 L4200 52990 L4230 52940 L4270 52890 L4350 52870 L4400 52870 L4470 52890 L4490 52910"/></g><g fill="#840000" fill-opacity="0" stroke="#840000" stroke-linecap="round" stroke-linejoin="round" stroke-opacity="1" stroke-width="60"><path d="M4200 73060 L4200 72550 L4320 72550 L4400 72570 L4440 72620 L4470 72670 L4490 72760 L4490 72840 L4470 72930 L4440 72980 L4400 73030 L4320 73060 L4200 73060"/></g><g fill="#840000" fill-opacity="0" stroke="#840000" stroke-linecap="round" stroke-linejoin="round" stroke-opacity="1" stroke-width="60"><path d="M112990 23620 L112210 23620"/></g><g fill="#840000" fill-opacity="0" stroke="#840000" stroke-linecap="round" stroke-linejoin="round" stroke-opacity="1" stroke-width="60"><path d="M112990 43310 L112210 43310"/></g><g fill="#840000" fill-opacity="0" stroke="#840000" stroke-linecap="round" stroke-linejoin="round" stroke-opacity="1" stroke-width="60"><path d="M112990 62990 L112210 62990"/></g><g fill="#840000" fill-opacity="0" stroke="#840000" stroke-linecap="round" stroke-linejoin="round" stroke-opacity="1" stroke-width="60"><path d="M112480 13860 L112720 13860"/><path d="M112430 14010 L112600 13500 L112770 14010"/></g><g fill="#840000" fill-opacity="0" stroke="#840000" stroke-linecap="round" stroke-linejoin="round" stroke-opacity="1" stroke-width="60"><path d="M112640 33420 L112710 33440 L112740 33470 L112760 33520 L112760 33590 L112740 33640 L112710 33660 L112670 33690 L112470 33690 L112470 33180 L112640 33180 L112690 33200 L112710 33220 L112740 33270 L112740 33320 L112710 33370 L112690 33390 L112640 33420 L112470 33420"/></g><g fill="#840000" fill-opacity="0" stroke="#840000" stroke-linecap="round" stroke-linejoin="round" stroke-opacity="1" stroke-width="60"><path d="M112760 53330 L112740 53350 L112670 53380 L112620 53380 L112540 53350 L112500 53300 L112470 53250 L112450 53160 L112450 53080 L112470 52990 L112500 52940 L112540 52890 L112620 52870 L112670 52870 L112740 52890 L112760 52910"/></g><g fill="#840000" fill-opacity="0" stroke="#840000" stroke-linecap="round" stroke-linejoin="round" stroke-opacity="1" stroke-width="60"><path d="M112470 73060 L112470 72550 L112590 72550 L112670 72570 L112710 72620 L112740 72670 L112760 72760 L112760 72840 L112740 72930 L112710 72980 L112670 73030 L112590 73060 L112470 73060"/></g><g fill="#840000" fill-opacity="0" stroke="#840000" stroke-linecap="round" stroke-linejoin="round" stroke-opacity="1" stroke-width="60"><path d="M78880 76290 L78880 75700 L79020 75700 L79110 75730 L79160 75790 L79190 75840 L79220 75950 L79220 76040 L79190 76150 L79160 76210 L79110 76260 L79020 76290 L78880 76290"/><path d="M79720 76290 L79720 75980 L79700 75930 L79640 75900 L79530 75900 L79470 75930"/><path d="M79720 76260 L79670 76290 L79530 76290 L79470 76260 L79440 76210 L79440 76150 L79470 76100 L79530 76070 L79670 76070 L79720 76040"/><path d="M79920 75900 L80140 75900"/><path d="M80000 75700 L80000 76210 L80030 76260 L80080 76290 L80140 76290"/><path d="M80570 76260 L80510 76290 L80400 76290 L80340 76260 L80310 76210 L80310 75980 L80340 75930 L80400 75900 L80510 75900 L80570 75930 L80590 75980 L80590 76040 L80310 76100"/><path d="M80850 76240 L80880 76260 L80850 76290 L80820 76260 L80850 76240 L80850 76290"/><path d="M80850 75930 L80880 75950 L80850 75980 L80820 75950 L80850 75930 L80850 75980"/></g><g fill="#840000" fill-opacity="0" stroke="#840000" stroke-linecap="round" stroke-linejoin="round" stroke-opacity="1" stroke-width="60"><path d="M69690 76580 L112210 76580"/></g><g fill="#840000" fill-opacity="0" stroke="#840000" stroke-linecap="round" stroke-linejoin="round" stroke-opacity="1" stroke-width="60"><path d="M70220 77390 L70220 76800"/><path d="M70560 77390 L70300 77050"/><path d="M70560 76800 L70220 77140"/><path d="M70810 77390 L70810 77000"/><path d="M70810 76800 L70780 76830 L70810 76860 L70840 76830 L70810 76800 L70810 76860"/><path d="M71430 77340 L71400 77360 L71320 77390 L71260 77390 L71170 77360 L71120 77310 L71090 77250 L71060 77140 L71060 77050 L71090 76940 L71120 76890 L71170 76830 L71260 76800 L71320 76800 L71400 76830 L71430 76860"/><path d="M71930 77390 L71930 77080 L71910 77030 L71850 77000 L71740 77000 L71680 77030"/><path d="M71930 77360 L71880 77390 L71740 77390 L71680 77360 L71650 77310 L71650 77250 L71680 77200 L71740 77170 L71880 77170 L71930 77140"/><path d="M72460 77390 L72460 76800"/><path d="M72460 77360 L72410 77390 L72290 77390 L72240 77360 L72210 77340 L72180 77280 L72180 77110 L72210 77050 L72240 77030 L72290 77000 L72410 77000 L72460 77030"/><path d="M73190 77080 L73390 77080"/><path d="M73470 77390 L73190 77390 L73190 76800 L73470 76800"/><path d="M73720 77340 L73750 77360 L73720 77390 L73690 77360 L73720 77340 L73720 77390"/><path d="M74000 77390 L74000 76800 L74140 76800 L74230 76830 L74280 76890 L74310 76940 L74340 77050 L74340 77140 L74310 77250 L74280 77310 L74230 77360 L74140 77390 L74000 77390"/><path d="M74590 77340 L74620 77360 L74590 77390 L74560 77360 L74590 77340 L74590 77390"/><path d="M74840 77220 L75120 77220"/><path d="M74790 77390 L74980 76800 L75180 77390"/><path d="M75380 77340 L75410 77360 L75380 77390 L75350 77360 L75380 77340 L75380 77390"/><path d="M76560 77390 L76560 76800"/><path d="M76620 77170 L76790 77390"/><path d="M76790 77000 L76560 77220"/><path d="M77040 77390 L77040 77000"/><path d="M77040 76800 L77010 76830 L77040 76860 L77070 76830 L77040 76800 L77040 76860"/><path d="M77570 77360 L77520 77390 L77400 77390 L77350 77360 L77320 77340 L77290 77280 L77290 77110 L77320 77050 L77350 77030 L77400 77000 L77520 77000 L77570 77030"/><path d="M78080 77390 L78080 77080 L78060 77030 L78000 77000 L77890 77000 L77830 77030"/><path d="M78080 77360 L78030 77390 L77890 77390 L77830 77360 L77800 77310 L77800 77250 L77830 77200 L77890 77170 L78030 77170 L78080 77140"/><path d="M78610 77390 L78610 76800"/><path d="M78610 77360 L78560 77390 L78440 77390 L78390 77360 L78360 77340 L78330 77280 L78330 77110 L78360 77050 L78390 77030 L78440 77000 L78560 77000 L78610 77030"/><path d="M79590 77000 L79590 77390"/><path d="M79450 76770 L79310 77200 L79680 77200"/><path d="M79900 77340 L79930 77360 L79900 77390 L79870 77360 L79900 77340 L79900 77390"/><path d="M80290 76800 L80350 76800 L80410 76830 L80430 76860 L80460 76910 L80490 77030 L80490 77170 L80460 77280 L80430 77340 L80410 77360 L80350 77390 L80290 77390 L80240 77360 L80210 77340 L80180 77280 L80150 77170 L80150 77030 L80180 76910 L80210 76860 L80240 76830 L80290 76800"/><path d="M80740 77340 L80770 77360 L80740 77390 L80710 77360 L80740 77340 L80740 77390"/><path d="M81270 76800 L81160 76800 L81100 76830 L81080 76860 L81020 76940 L80990 77050 L80990 77280 L81020 77340 L81050 77360 L81100 77390 L81220 77390 L81270 77360 L81300 77340 L81330 77280 L81330 77140 L81300 77080 L81270 77050 L81220 77030 L81100 77030 L81050 77050 L81020 77080 L80990 77140"/></g><g fill="#840000" fill-opacity="0" stroke="#840000" stroke-linecap="round" stroke-linejoin="round" stroke-opacity="1" stroke-width="60"><path d="M69690 75400 L112210 75400"/></g><g fill="#840000" fill-opacity="0" stroke="#840000" stroke-linecap="round" stroke-linejoin="round" stroke-opacity="1" stroke-width="120"><path d="M104020 76290 L103820 76010"/><path d="M103680 76290 L103680 75700 L103910 75700 L103960 75730 L103990 75760 L104020 75810 L104020 75900 L103990 75950 L103960 75980 L103910 76010 L103680 76010"/><path d="M104500 76260 L104440 76290 L104330 76290 L104270 76260 L104240 76210 L104240 75980 L104270 75930 L104330 75900 L104440 75900 L104500 75930 L104520 75980 L104520 76040 L104240 76100"/><path d="M104720 75900 L104860 76290 L105010 75900"/><path d="M105230 76240 L105260 76260 L105230 76290 L105200 76260 L105230 76240 L105230 76290"/><path d="M105230 75930 L105260 75950 L105230 75980 L105200 75950 L105230 75930 L105230 75980"/></g><g fill="#840000" fill-opacity="0" stroke="#840000" stroke-linecap="round" stroke-linejoin="round" stroke-opacity="1" stroke-width="60"><path d="M70190 76260 L70280 76290 L70420 76290 L70470 76260 L70500 76240 L70530 76180 L70530 76120 L70500 76070 L70470 76040 L70420 76010 L70300 75980 L70250 75950 L70220 75930 L70190 75870 L70190 75810 L70220 75760 L70250 75730 L70300 75700 L70450 75700 L70530 75730"/><path d="M70780 76290 L70780 75900"/><path d="M70780 75700 L70750 75730 L70780 75760 L70810 75730 L70780 75700 L70780 75760"/><path d="M71000 75900 L71310 75900 L71000 76290 L71310 76290"/><path d="M71770 76260 L71710 76290 L71600 76290 L71540 76260 L71510 76210 L71510 75980 L71540 75930 L71600 75900 L71710 75900 L71770 75930 L71790 75980 L71790 76040 L71510 76100"/><path d="M72050 76240 L72080 76260 L72050 76290 L72020 76260 L72050 76240 L72050 76290"/><path d="M72050 75930 L72080 75950 L72050 75980 L72020 75950 L72050 75930 L72050 75980"/><path d="M72750 76120 L73030 76120"/><path d="M72700 76290 L72890 75700 L73090 76290"/><path d="M73540 75900 L73540 76290"/><path d="M73400 75670 L73260 76100 L73630 76100"/></g><g fill="#840000" fill-opacity="0" stroke="#840000" stroke-linecap="round" stroke-linejoin="round" stroke-opacity="1" stroke-width="60"><path d="M103680 77390 L103680 76800"/><path d="M104210 77390 L104210 76800"/><path d="M104210 77360 L104160 77390 L104040 77390 L103990 77360 L103960 77340 L103930 77280 L103930 77110 L103960 77050 L103990 77030 L104040 77000 L104160 77000 L104210 77030"/><path d="M104490 77340 L104520 77360 L104490 77390 L104460 77360 L104490 77340 L104490 77390"/><path d="M104490 77030 L104520 77050 L104490 77080 L104460 77050 L104490 77030 L104490 77080"/><path d="M105530 77390 L105190 77390"/><path d="M105360 77390 L105360 76800 L105300 76890 L105250 76940 L105190 76970"/><path d="M106200 76770 L105700 77530"/><path d="M106710 77390 L106370 77390"/><path d="M106540 77390 L106540 76800 L106480 76890 L106430 76940 L106370 76970"/></g><g fill="#840000" fill-opacity="0" stroke="#840000" stroke-linecap="round" stroke-linejoin="round" stroke-opacity="1" stroke-width="60"><path d="M69690 73820 L112210 73820"/></g><g fill="#840000" fill-opacity="0" stroke="#840000" stroke-linecap="round" stroke-linejoin="round" stroke-opacity="1" stroke-width="160"><path d="M70260 74090 L70710 74090"/><path d="M70390 74880 L70480 74090"/><path d="M70880 74880 L70940 74360"/><path d="M70970 74090 L70930 74130 L70960 74170 L71010 74130 L70970 74090 L70960 74170"/><path d="M71210 74360 L71510 74360"/><path d="M71350 74090 L71270 74770 L71300 74840 L71370 74880 L71450 74880"/><path d="M71820 74880 L71750 74840 L71720 74770 L71800 74090"/><path d="M72420 74840 L72340 74880 L72190 74880 L72120 74840 L72090 74770 L72130 74470 L72180 74390 L72250 74360 L72400 74360 L72480 74390 L72510 74470 L72500 74540 L72110 74620"/><path d="M72800 74810 L72840 74840 L72800 74880 L72760 74840 L72800 74810 L72800 74880"/><path d="M72860 74390 L72890 74430 L72850 74470 L72810 74430 L72860 74390 L72850 74470"/></g><g fill="#840000" fill-opacity="0" stroke="#840000" stroke-linecap="round" stroke-linejoin="round" stroke-opacity="1" stroke-width="60"><path d="M70420 73060 L70220 73060"/><path d="M70220 73370 L70220 72780 L70500 72780"/><path d="M70730 73370 L70730 72980"/><path d="M70730 72780 L70700 72810 L70730 72840 L70760 72810 L70730 72780 L70730 72840"/><path d="M71090 73370 L71040 73340 L71010 73290 L71010 72780"/><path d="M71550 73340 L71490 73370 L71380 73370 L71320 73340 L71290 73290 L71290 73060 L71320 73010 L71380 72980 L71490 72980 L71550 73010 L71570 73060 L71570 73120 L71290 73180"/><path d="M71830 73320 L71860 73340 L71830 73370 L71800 73340 L71830 73320 L71830 73370"/><path d="M71830 73010 L71860 73030 L71830 73060 L71800 73030 L71830 73010 L71830 73060"/><path d="M72560 73370 L72560 72780"/><path d="M72810 73370 L72810 73060 L72790 73010 L72730 72980 L72640 72980 L72590 73010 L72560 73030"/><path d="M73090 73370 L73090 72980"/><path d="M73090 72780 L73060 72810 L73090 72840 L73120 72810 L73090 72780 L73090 72840"/><path d="M73620 72980 L73620 73460 L73600 73510 L73570 73540 L73510 73570 L73430 73570 L73370 73540"/><path d="M73620 73340 L73570 73370 L73450 73370 L73400 73340 L73370 73320 L73340 73260 L73340 73090 L73370 73030 L73400 73010 L73450 72980 L73570 72980 L73620 73010"/><path d="M73900 73370 L73900 72780"/><path d="M74150 73370 L74150 73060 L74130 73010 L74070 72980 L73980 72980 L73930 73010 L73900 73030"/><path d="M74430 73150 L74880 73150"/><path d="M75240 73370 L75190 73340 L75160 73290 L75160 72780"/><path d="M75700 73340 L75640 73370 L75530 73370 L75470 73340 L75440 73290 L75440 73060 L75470 73010 L75530 72980 L75640 72980 L75700 73010 L75720 73060 L75720 73120 L75440 73180"/><path d="M75920 72980 L76060 73370 L76210 72980"/><path d="M76660 73340 L76600 73370 L76490 73370 L76430 73340 L76400 73290 L76400 73060 L76430 73010 L76490 72980 L76600 72980 L76660 73010 L76680 73060 L76680 73120 L76400 73180"/><path d="M77020 73370 L76970 73340 L76940 73290 L76940 72780"/><path d="M77250 73150 L77700 73150"/><path d="M77950 73340 L78010 73370 L78120 73370 L78180 73340 L78210 73290 L78210 73260 L78180 73200 L78120 73180 L78040 73180 L77980 73150 L77950 73090 L77950 73060 L77980 73010 L78040 72980 L78120 72980 L78180 73010"/><path d="M78710 73340 L78660 73370 L78540 73370 L78490 73340 L78460 73320 L78430 73260 L78430 73090 L78460 73030 L78490 73010 L78540 72980 L78660 72980 L78710 73010"/><path d="M78970 73370 L78970 72780"/><path d="M79220 73370 L79220 73060 L79200 73010 L79140 72980 L79050 72980 L79000 73010 L78970 73030"/><path d="M79730 73340 L79670 73370 L79560 73370 L79500 73340 L79470 73290 L79470 73060 L79500 73010 L79560 72980 L79670 72980 L79730 73010 L79750 73060 L79750 73120 L79470 73180"/><path d="M80010 73370 L80010 72980"/><path d="M80010 73030 L80040 73010 L80090 72980 L80180 72980 L80240 73010 L80260 73060 L80260 73370"/><path d="M80260 73060 L80290 73010 L80350 72980 L80430 72980 L80490 73010 L80520 73060 L80520 73370"/><path d="M81050 73370 L81050 73060 L81030 73010 L80970 72980 L80860 72980 L80800 73010"/><path d="M81050 73340 L81000 73370 L80860 73370 L80800 73340 L80770 73290 L80770 73230 L80800 73180 L80860 73150 L81000 73150 L81050 73120"/><path d="M81250 72980 L81470 72980"/><path d="M81330 72780 L81330 73290 L81360 73340 L81410 73370 L81470 73370"/><path d="M81670 73370 L81670 72980"/><path d="M81670 72780 L81640 72810 L81670 72840 L81700 72810 L81670 72780 L81670 72840"/><path d="M82200 73340 L82150 73370 L82030 73370 L81980 73340 L81950 73320 L81920 73260 L81920 73090 L81950 73030 L81980 73010 L82030 72980 L82150 72980 L82200 73010"/><path d="M82460 73320 L82490 73340 L82460 73370 L82430 73340 L82460 73320 L82460 73370"/><path d="M82710 73340 L82770 73370 L82880 73370 L82940 73340 L82970 73290 L82970 73260 L82940 73200 L82880 73180 L82800 73180 L82740 73150 L82710 73090 L82710 73060 L82740 73010 L82800 72980 L82880 72980 L82940 73010"/><path d="M83470 73340 L83420 73370 L83300 73370 L83250 73340 L83220 73320 L83190 73260 L83190 73090 L83220 73030 L83250 73010 L83300 72980 L83420 72980 L83470 73010"/><path d="M83730 73370 L83730 72780"/><path d="M83980 73370 L83980 73060 L83960 73010 L83900 72980 L83810 72980 L83760 73010 L83730 73030"/></g><g fill="#840000" fill-opacity="0" stroke="#840000" stroke-linecap="round" stroke-linejoin="round" stroke-opacity="1" stroke-width="60"><path d="M69690 71460 L112210 71460"/></g><g fill="#840000" fill-opacity="0" stroke="#840000" stroke-linecap="round" stroke-linejoin="round" stroke-opacity="1" stroke-width="60"><path d="M70190 72280 L70280 72310 L70420 72310 L70470 72280 L70500 72260 L70530 72200 L70530 72140 L70500 72090 L70470 72060 L70420 72030 L70300 72000 L70250 71970 L70220 71950 L70190 71890 L70190 71830 L70220 71780 L70250 71750 L70300 71720 L70450 71720 L70530 71750"/><path d="M70780 72310 L70780 71720"/><path d="M71030 72310 L71030 72000 L71010 71950 L70950 71920 L70860 71920 L70810 71950 L70780 71970"/><path d="M71540 72280 L71480 72310 L71370 72310 L71310 72280 L71280 72230 L71280 72000 L71310 71950 L71370 71920 L71480 71920 L71540 71950 L71560 72000 L71560 72060 L71280 72120"/><path d="M72050 72280 L71990 72310 L71880 72310 L71820 72280 L71790 72230 L71790 72000 L71820 71950 L71880 71920 L71990 71920 L72050 71950 L72070 72000 L72070 72060 L71790 72120"/><path d="M72250 71920 L72470 71920"/><path d="M72330 71720 L72330 72230 L72360 72280 L72410 72310 L72470 72310"/><path d="M72670 72260 L72700 72280 L72670 72310 L72640 72280 L72670 72260 L72670 72310"/><path d="M72670 71950 L72700 71970 L72670 72000 L72640 71970 L72670 71950 L72670 72000"/><path d="M73820 71690 L73320 72450"/></g><g fill="#840000" fill-opacity="0" stroke="#840000" stroke-linecap="round" stroke-linejoin="round" stroke-opacity="1" stroke-width="60"><path d="M77560 75400 L77560 76580"/></g><g fill="#840000" fill-opacity="0" stroke="#840000" stroke-linecap="round" stroke-linejoin="round" stroke-opacity="1" stroke-width="60"><path d="M102760 75400 L102760 77960"/></g><g fill="#840000" fill-opacity="0" stroke="#840000" stroke-linecap="round" stroke-linejoin="round" stroke-opacity="1" stroke-width="100"><rect width="2000" height="800" x="50500" y="26600" rx="0"/></g><g fill="#840000" fill-opacity="0" stroke="#840000" stroke-linecap="round" stroke-linejoin="round" stroke-opacity="1" stroke-width="60"><path d="M52500 27000 L53000 27000"/><path d="M50500 27000 L50000 27000"/></g><g fill="#008484" fill-opacity="0" stroke="#008484" stroke-linecap="round" stroke-linejoin="round" stroke-opacity="1" stroke-width="60"><path d="M51400 27260 L51120 27260"/><path d="M51260 27260 L51260 26760 L51210 26830 L51160 26880 L51120 26900"/><path d="M51710 26760 L51760 26760 L51810 26780 L51830 26800 L51860 26850 L51880 26950 L51880 27070 L51860 27160 L51830 27210 L51810 27230 L51760 27260 L51710 27260 L51670 27230 L51640 27210 L51620 27160 L51600 27070 L51600 26950 L51620 26850 L51640 26800 L51670 26780 L51710 26760"/></g><g fill="#840000" fill-opacity="0" stroke="#840000" stroke-linecap="round" stroke-linejoin="round" stroke-opacity="1" stroke-width="60"><path d="M38610 29270 L38320 29270 L38320 28670"/><path d="M38810 29270 L38810 28870"/><path d="M38810 28670 L38780 28700 L38810 28730 L38840 28700 L38810 28670 L38810 28730"/><path d="M39050 28870 L39190 29270 L39330 28870"/><path d="M39790 29240 L39730 29270 L39620 29270 L39560 29240 L39530 29190 L39530 28960 L39560 28900 L39620 28870 L39730 28870 L39790 28900 L39820 28960 L39820 29010 L39530 29070"/><path d="M39930 29330 L40390 29330"/><path d="M40530 29270 L40530 28670"/><path d="M40820 28870 L40820 29270"/><path d="M40820 28930 L40850 28900 L40910 28870 L40990 28870 L41050 28900 L41080 28960 L41080 29270"/><path d="M41360 28870 L41360 29470"/><path d="M41360 28900 L41420 28870 L41530 28870 L41590 28900 L41620 28930 L41650 28990 L41650 29160 L41620 29210 L41590 29240 L41530 29270 L41420 29270 L41360 29240"/><path d="M42160 28870 L42160 29270"/><path d="M41900 28870 L41900 29190 L41930 29240 L41990 29270 L42070 29270 L42130 29240 L42160 29210"/><path d="M42360 28870 L42590 28870"/><path d="M42440 28670 L42440 29190 L42470 29240 L42530 29270 L42590 29270"/></g><g fill="#840000" fill-opacity="0" stroke="#840000" stroke-linecap="round" stroke-linejoin="round" stroke-opacity="1" stroke-width="100"><polyline fill="none;" points="43000 29000 42700 28460 37950 28460 37950 29000 37950 29540 42700 29540 43000 29000"/></g><g fill="#840000" fill-opacity="0" stroke="#840000" stroke-linecap="round" stroke-linejoin="round" stroke-opacity="1" stroke-width="60"><path d="M56790 29270 L56500 29270 L56500 28670"/><path d="M56990 29270 L56990 28870"/><path d="M56990 28670 L56960 28700 L56990 28730 L57020 28700 L56990 28670 L56990 28730"/><path d="M57230 28870 L57370 29270 L57510 28870"/><path d="M57970 29240 L57910 29270 L57800 29270 L57740 29240 L57710 29190 L57710 28960 L57740 28900 L57800 28870 L57910 28870 L57970 28900 L58000 28960 L58000 29010 L57710 29070"/><path d="M58110 29330 L58570 29330"/><path d="M58830 28670 L58940 28670 L59000 28700 L59060 28760 L59080 28870 L59080 29070 L59060 29190 L59000 29240 L58940 29270 L58830 29270 L58770 29240 L58710 29190 L58680 29070 L58680 28870 L58710 28760 L58770 28700 L58830 28670"/><path d="M59600 28870 L59600 29270"/><path d="M59340 28870 L59340 29190 L59370 29240 L59430 29270 L59510 29270 L59570 29240 L59600 29210"/><path d="M59800 28870 L60030 28870"/><path d="M59880 28670 L59880 29190 L59910 29240 L59970 29270 L60030 29270"/><path d="M60220 28870 L60220 29470"/><path d="M60220 28900 L60280 28870 L60390 28870 L60450 28900 L60480 28930 L60510 28990 L60510 29160 L60480 29210 L60450 29240 L60390 29270 L60280 29270 L60220 29240"/><path d="M61020 28870 L61020 29270"/><path d="M60760 28870 L60760 29190 L60790 29240 L60850 29270 L60930 29270 L60990 29240 L61020 29210"/><path d="M61220 28870 L61450 28870"/><path d="M61300 28670 L61300 29190 L61330 29240 L61390 29270 L61450 29270"/></g><g fill="#840000" fill-opacity="0" stroke="#840000" stroke-linecap="round" stroke-linejoin="round" stroke-opacity="1" stroke-width="100"><polyline fill="none;" points="56000 29000 56300 29540 61730 29540 61730 29000 61730 28460 56300 28460 56000 29000"/></g><g fill="#840000" fill-opacity="0" stroke="#840000" stroke-linecap="round" stroke-linejoin="round" stroke-opacity="1" stroke-width="60"><polyline fill="none;" points="51000 31000 52500 30500"/><path d="M51000 31000 L50000 31000"/><path d="M50680 30870 L50330 30870"/><path d="M50510 30870 L50510 30270 L50450 30360 L50390 30410 L50330 30440"/><path d="M52500 31000 L53500 31000"/><path d="M52830 30330 L52860 30300 L52920 30270 L53060 30270 L53120 30300 L53150 30330 L53180 30390 L53180 30440 L53150 30530 L52810 30870 L53180 30870"/></g><g fill="#008484" fill-opacity="0" stroke="#008484" stroke-linecap="round" stroke-linejoin="round" stroke-opacity="1" stroke-width="60"><path d="M50780 32000 L50870 32030 L50900 32050 L50930 32110 L50930 32200 L50900 32250 L50870 32280 L50810 32310 L50580 32310 L50580 31710 L50780 31710 L50840 31740 L50870 31770 L50900 31830 L50900 31880 L50870 31940 L50840 31970 L50780 32000 L50580 32000"/><path d="M51130 31910 L51270 32310"/><path d="M51410 31910 L51270 32310 L51210 32450 L51180 32480 L51130 32510"/><path d="M51640 31910 L51640 32510"/><path d="M51640 31940 L51700 31910 L51810 31910 L51870 31940 L51900 31970 L51930 32030 L51930 32200 L51900 32250 L51870 32280 L51810 32310 L51700 32310 L51640 32280"/><path d="M52440 32310 L52440 32000 L52410 31940 L52350 31910 L52240 31910 L52180 31940"/><path d="M52440 32280 L52380 32310 L52240 32310 L52180 32280 L52150 32230 L52150 32170 L52180 32110 L52240 32080 L52380 32080 L52440 32050"/><path d="M52690 32280 L52750 32310 L52870 32310 L52920 32280 L52950 32230 L52950 32200 L52920 32140 L52870 32110 L52780 32110 L52720 32080 L52690 32030 L52690 32000 L52720 31940 L52780 31910 L52870 31910 L52920 31940"/><path d="M53180 32280 L53240 32310 L53360 32310 L53410 32280 L53440 32230 L53440 32200 L53410 32140 L53360 32110 L53270 32110 L53210 32080 L53180 32030 L53180 32000 L53210 31940 L53270 31910 L53360 31910 L53410 31940"/></g><g fill="#008400" fill-opacity="0" stroke="#008400" stroke-linecap="round" stroke-linejoin="round" stroke-opacity="1" stroke-width="60"><path d="M47500 29000 L49000 29000"/><path d="M49000 27000 L49000 29000"/><path d="M49000 29000 L49000 31000"/><path d="M49000 31000 L50000 31000"/><path d="M54000 31000 L53500 31000"/><path d="M54000 27000 L54000 29000"/><path d="M54000 29000 L54000 31000"/><path d="M54000 29000 L56000 29000"/><path d="M53000 27000 L54000 27000"/></g><g fill="#008400" fill-opacity="1" stroke="#008400" stroke-linecap="round" stroke-linejoin="round" stroke-opacity="1" stroke-width="100"><circle cx="54000" cy="29000" r="200"/></g><g fill="#008400" fill-opacity="0" stroke="#008400" stroke-linecap="round" stroke-linejoin="round" stroke-opacity="1" stroke-width="60"><path d="M50000 27000 L49000 27000"/></g><g fill="#008400" fill-opacity="1" stroke="#008400" stroke-linecap="round" stroke-linejoin="round" stroke-opacity="1" stroke-width="100"><circle cx="49000" cy="29000" r="200"/></g><g fill="#0000C2" fill-opacity="0" stroke="#0000C2" stroke-linecap="round" stroke-linejoin="round" stroke-opacity="1" stroke-width="60"><path d="M47140 25970 L47140 25370"/><path d="M47140 25660 L47490 25660"/><path d="M47490 25970 L47490 25370"/><path d="M47770 25970 L47770 25570"/><path d="M47770 25370 L47740 25400 L47770 25430 L47800 25400 L47770 25370 L47770 25430"/><path d="M48320 25570 L48320 26060 L48290 26110 L48260 26140 L48210 26170 L48120 26170 L48060 26140"/><path d="M48320 25940 L48260 25970 L48150 25970 L48090 25940 L48060 25910 L48030 25860 L48030 25690 L48060 25630 L48090 25600 L48150 25570 L48260 25570 L48320 25600"/><path d="M48600 25970 L48600 25370"/><path d="M48860 25970 L48860 25660 L48830 25600 L48770 25570 L48690 25570 L48630 25600 L48600 25630"/><path d="M49600 25970 L49600 25370 L49830 25370 L49890 25400 L49920 25430 L49950 25490 L49950 25570 L49920 25630 L49890 25660 L49830 25690 L49600 25690"/><path d="M50290 25970 L50230 25940 L50200 25910 L50170 25860 L50170 25690 L50200 25630 L50230 25600 L50290 25570 L50370 25570 L50430 25600 L50460 25630 L50490 25690 L50490 25860 L50460 25910 L50430 25940 L50370 25970 L50290 25970"/><path d="M50690 25570 L50800 25970 L50910 25690 L51030 25970 L51140 25570"/><path d="M51600 25940 L51540 25970 L51430 25970 L51370 25940 L51340 25890 L51340 25660 L51370 25600 L51430 25570 L51540 25570 L51600 25600 L51630 25660 L51630 25710 L51340 25770"/><path d="M51880 25970 L51880 25570"/><path d="M51880 25690 L51910 25630 L51940 25600 L52000 25570 L52050 25570"/><path d="M53060 25970 L52860 25690"/><path d="M52710 25970 L52710 25370 L52940 25370 L53000 25400 L53030 25430 L53060 25490 L53060 25570 L53030 25630 L53000 25660 L52940 25690 L52710 25690"/><path d="M53540 25940 L53480 25970 L53370 25970 L53310 25940 L53280 25890 L53280 25660 L53310 25600 L53370 25570 L53480 25570 L53540 25600 L53570 25660 L53570 25710 L53280 25770"/><path d="M53790 25940 L53850 25970 L53970 25970 L54020 25940 L54050 25890 L54050 25860 L54020 25800 L53970 25770 L53880 25770 L53820 25740 L53790 25690 L53790 25660 L53820 25600 L53880 25570 L53970 25570 L54020 25600"/><path d="M54310 25970 L54310 25570"/><path d="M54310 25370 L54280 25400 L54310 25430 L54340 25400 L54310 25370 L54310 25430"/><path d="M54570 25940 L54630 25970 L54750 25970 L54800 25940 L54830 25890 L54830 25860 L54800 25800 L54750 25770 L54660 25770 L54600 25740 L54570 25690 L54570 25660 L54600 25600 L54660 25570 L54750 25570 L54800 25600"/><path d="M55010 25570 L55240 25570"/><path d="M55090 25370 L55090 25890 L55120 25940 L55180 25970 L55240 25970"/><path d="M55520 25970 L55460 25940 L55430 25910 L55400 25860 L55400 25690 L55430 25630 L55460 25600 L55520 25570 L55600 25570 L55660 25600 L55690 25630 L55720 25690 L55720 25860 L55690 25910 L55660 25940 L55600 25970 L55520 25970"/><path d="M55970 25970 L55970 25570"/><path d="M55970 25690 L56000 25630 L56030 25600 L56090 25570 L56140 25570"/></g><g fill="#840000" fill-opacity="0" stroke="#840000" stroke-linecap="round" stroke-linejoin="round" stroke-opacity="1" stroke-width="60"><polyline fill="none;" points="45000 29000 46500 28500"/><path d="M45000 29000 L44000 29000"/><path d="M44680 28870 L44330 28870"/><path d="M44510 28870 L44510 28270 L44450 28360 L44390 28410 L44330 28440"/><path d="M46500 29000 L47500 29000"/><path d="M46830 28330 L46860 28300 L46920 28270 L47060 28270 L47120 28300 L47150 28330 L47180 28390 L47180 28440 L47150 28530 L46810 28870 L47180 28870"/></g><g fill="#008484" fill-opacity="0" stroke="#008484" stroke-linecap="round" stroke-linejoin="round" stroke-opacity="1" stroke-width="60"><path d="M45200 30310 L45200 29710 L45400 30140 L45600 29710 L45600 30310"/><path d="M46240 30250 L46210 30280 L46120 30310 L46060 30310 L45980 30280 L45920 30230 L45890 30170 L45860 30050 L45860 29970 L45890 29850 L45920 29800 L45980 29740 L46060 29710 L46120 29710 L46210 29740 L46240 29770"/><path d="M46690 30000 L46780 30030 L46810 30050 L46840 30110 L46840 30200 L46810 30250 L46780 30280 L46720 30310 L46490 30310 L46490 29710 L46690 29710 L46750 29740 L46780 29770 L46810 29830 L46810 29880 L46780 29940 L46750 29970 L46690 30000 L46490 30000"/></g><g fill="#008400" fill-opacity="0" stroke="#008400" stroke-linecap="round" stroke-linejoin="round" stroke-opacity="1" stroke-width="60"><path d="M43000 29000 L44000 29000"/></g></svg>